<?xml version="1.0" encoding="utf-8"?>
<!-- Generator: Adobe Illustrator 27.0.1, SVG Export Plug-In . SVG Version: 6.00 Build 0)  -->
<svg version="1.1" id="Слой_1" xmlns="http://www.w3.org/2000/svg" xmlns:xlink="http://www.w3.org/1999/xlink" x="0px" y="0px"
	 viewBox="0 0 100 100" style="enable-background:new 0 0 100 100;" xml:space="preserve">
<style type="text/css">
	.st0{fill:#232323;stroke:#FFFFFF;stroke-width:2;stroke-miterlimit:10;}
	.st1{fill:#FFFFFF;stroke:#FFFFFF;stroke-width:2;stroke-miterlimit:10;}
	.st2{fill:#232323;}
	.st3{fill:#FFFFFF;}
</style>
<g id="_Слой_3">
	<path class="st0" d="M49.8,9.6L26.6,96.4c-0.3,1,0.8,1.9,1.7,1.5l44.3-19.2c0.6-0.3,0.9-0.9,0.7-1.5L53.3,9.5
		C52.8,7.8,50.3,7.8,49.8,9.6L49.8,9.6z"/>
	<polygon class="st1" points="68.3,60.1 33.3,71.3 36.5,59.5 64.8,48.3 	"/>
	<g>
		<path class="st2" d="M43.8,36.1c-0.7,0-1.4-0.3-1.8-0.9c-0.4-0.6-0.6-1.3-0.4-2l7.7-28.6c0.3-1,1.1-1.7,2.2-1.7s1.9,0.6,2.2,1.6
			L60,26c0.3,1-0.2,2.2-1.1,2.7l-14,7.2C44.5,36,44.1,36.1,43.8,36.1L43.8,36.1L43.8,36.1z"/>
		<path class="st3" d="M51.4,4c0.5,0,1,0.3,1.2,0.9L59,26.3c0.2,0.6-0.1,1.2-0.6,1.5l-14,7.2c-0.2,0.1-0.4,0.1-0.6,0.1
			c-0.8,0-1.4-0.8-1.2-1.6l7.7-28.6C50.4,4.3,50.9,4,51.4,4 M51.5,2c-1.5,0-2.8,1-3.2,2.4L40.6,33c-0.3,1-0.1,2,0.6,2.8
			s1.6,1.3,2.6,1.3c0.5,0,1-0.1,1.5-0.4l14-7.2c1.4-0.7,2.1-2.3,1.6-3.8L54.6,4.3C54.2,2.9,52.9,2,51.5,2L51.5,2L51.5,2z"/>
	</g>
</g>
</svg>
