<?xml version="1.0" encoding="utf-8"?>
<!-- Generator: Adobe Illustrator 27.0.1, SVG Export Plug-In . SVG Version: 6.00 Build 0)  -->
<svg version="1.1" id="Слой_1" xmlns="http://www.w3.org/2000/svg" xmlns:xlink="http://www.w3.org/1999/xlink" x="0px" y="0px"
	 viewBox="0 0 100 20" style="enable-background:new 0 0 100 20;" xml:space="preserve">
<style type="text/css">
	.st0{fill:#232323;}
	.st1{fill:#FFFFFF;}
	.st2{font-family:'LeonovSPRegular';}
	.st3{font-size:12px;}
</style>
<path class="st0" d="M97,20.1H3c-1.7,0-3-1.3-3-3v-14c0-1.7,1.3-3,3-3h94c1.7,0,3,1.3,3,3v14C100,18.7,98.7,20.1,97,20.1z"/>
<text transform="matrix(1 0 0 1 8.98 14.2845)" class="st1 st2 st3">Medovukha</text>
<path class="st1" d="M91.1,18.1H9c-0.2,0-0.3-0.1-0.3-0.3v-0.7c0-0.2,0.1-0.3,0.3-0.3h82.1c0.2,0,0.3,0.1,0.3,0.3v0.7
	C91.4,17.9,91.2,18.1,91.1,18.1z"/>
</svg>
