<?xml version="1.0" encoding="utf-8"?>
<!-- Generator: Adobe Illustrator 27.0.1, SVG Export Plug-In . SVG Version: 6.00 Build 0)  -->
<svg version="1.1" xmlns="http://www.w3.org/2000/svg" xmlns:xlink="http://www.w3.org/1999/xlink" x="0px" y="0px"
	 viewBox="0 0 512 512" style="enable-background:new 0 0 512 512;" xml:space="preserve">
<style type="text/css">
	.st0{display:none;}
	.st1{display:inline;fill:#575756;}
	.st2{fill:#232323;stroke:#FFFFFF;stroke-width:4;stroke-miterlimit:10;}
	.st3{fill:#232323;}
	.st4{fill:#FFFFFF;}
	.st5{font-family:'MyriadPro-Regular';}
	.st6{font-size:29.2199px;}
	.st7{display:inline;fill:#232323;stroke:#E30613;stroke-width:4;stroke-miterlimit:10;}
</style>
<g id="Слой_3" class="st0">
	<rect class="st1" width="512" height="512"/>
</g>
<g id="Слой_1">
	<path class="st2" d="M255.1,85.1l-91.5,342.2c-1.1,4,3,7.5,6.8,5.9L345,357.6c2.3-1,3.5-3.6,2.8-6L268.7,84.9
		C266.6,78.1,256.9,78.2,255.1,85.1z"/>
	<path class="st2" d="M351.4,289.9l-174.2,40.5c-3.6,0.8-6.9-2.4-6-6.1l14.2-57.5c0.5-1.9,2-3.3,3.9-3.7l146.8-29.9
		c2.6-0.5,5.1,1,5.8,3.6l13.1,46.9C355.8,286.4,354.2,289.3,351.4,289.9z"/>
	<g>
		<path class="st3" d="M231.2,187.8c-2.2,0-4.2-1-5.6-2.8c-1.3-1.7-1.8-3.9-1.2-6l30.2-112.8c0.8-3.1,3.5-5.2,6.8-5.2
			c3.2,0,5.8,2,6.7,5l25,84.3c1,3.2-0.5,6.7-3.5,8.2L234.4,187C233.4,187.6,232.3,187.8,231.2,187.8z"/>
		<path class="st4" d="M261.4,63c2,0,4.1,1.2,4.8,3.6l25,84.3c0.7,2.3-0.4,4.8-2.5,5.9l-55.2,28.5c-0.8,0.4-1.5,0.6-2.3,0.6
			c-3.1,0-5.7-2.9-4.8-6.3l30.2-112.8C257.2,64.3,259.3,63,261.4,63 M261.4,59L261.4,59c-4.1,0-7.6,2.7-8.7,6.7l-30.2,112.8
			c-0.7,2.7-0.2,5.6,1.5,7.8c1.7,2.2,4.4,3.6,7.2,3.6c1.4,0,2.8-0.3,4.1-1l55.2-28.5c3.8-2,5.7-6.4,4.5-10.6l-25-84.3
			C268.9,61.6,265.4,59,261.4,59L261.4,59z"/>
	</g>
	<text transform="matrix(0.974 -0.2265 0.2265 0.974 196.0314 306.0028)" class="st4 st5 st6">Medovukha</text>
</g>
<g id="Слой_2" class="st0">
	<line class="st7" x1="368.7" y1="349.9" x2="290.1" y2="84.9"/>
	<line class="st7" x1="220.3" y1="136" x2="147.6" y2="407.7"/>
	<line class="st7" x1="215.7" y1="232.3" x2="269" y2="33"/>
	<line class="st7" x1="309.1" y1="221.1" x2="259.1" y2="52.8"/>
</g>
</svg>
